<mxfile host="app.diagrams.net" modified="2020-12-21T08:47:07.298Z" agent="5.0 (Windows NT 10.0; Win64; x64) AppleWebKit/537.36 (KHTML, like Gecko) Chrome/87.0.4280.88 Safari/537.36" etag="YgSaqWnMNhGaeDn2i-D-" version="14.1.1" type="github">
  <diagram id="BWxFpB5nZAlgvFdPM-t_" name="Page-1">
    <mxGraphModel dx="1565" dy="444" grid="1" gridSize="10" guides="1" tooltips="1" connect="1" arrows="1" fold="1" page="1" pageScale="1" pageWidth="827" pageHeight="1169" math="0" shadow="0">
      <root>
        <mxCell id="0" />
        <mxCell id="1" parent="0" />
        <mxCell id="mh8AI9bPNSoJdGmhaGVJ-1" value="GameMain" style="swimlane;fontStyle=1;align=center;verticalAlign=top;childLayout=stackLayout;horizontal=1;startSize=26;horizontalStack=0;resizeParent=1;resizeParentMax=0;resizeLast=0;collapsible=1;marginBottom=0;fillColor=#21C0A5;strokeColor=#006658;fontColor=#5C5C5C;rounded=1;" parent="1" vertex="1">
          <mxGeometry x="254" y="20" width="160" height="86" as="geometry" />
        </mxCell>
        <mxCell id="mh8AI9bPNSoJdGmhaGVJ-2" value="+ stage: Stage" style="text;strokeColor=none;fillColor=none;align=left;verticalAlign=top;spacingLeft=4;spacingRight=4;overflow=hidden;rotatable=0;points=[[0,0.5],[1,0.5]];portConstraint=eastwest;fontColor=#5C5C5C;rounded=1;" parent="mh8AI9bPNSoJdGmhaGVJ-1" vertex="1">
          <mxGeometry y="26" width="160" height="26" as="geometry" />
        </mxCell>
        <mxCell id="mh8AI9bPNSoJdGmhaGVJ-3" value="" style="line;strokeWidth=1;fillColor=none;align=left;verticalAlign=middle;spacingTop=-1;spacingLeft=3;spacingRight=3;rotatable=0;labelPosition=right;points=[];portConstraint=eastwest;strokeColor=#006658;fontColor=#5C5C5C;rounded=1;" parent="mh8AI9bPNSoJdGmhaGVJ-1" vertex="1">
          <mxGeometry y="52" width="160" height="8" as="geometry" />
        </mxCell>
        <mxCell id="mh8AI9bPNSoJdGmhaGVJ-4" value="+ main(string[] args): void" style="text;strokeColor=none;fillColor=none;align=left;verticalAlign=top;spacingLeft=4;spacingRight=4;overflow=hidden;rotatable=0;points=[[0,0.5],[1,0.5]];portConstraint=eastwest;fontColor=#5C5C5C;rounded=1;" parent="mh8AI9bPNSoJdGmhaGVJ-1" vertex="1">
          <mxGeometry y="60" width="160" height="26" as="geometry" />
        </mxCell>
        <mxCell id="mh8AI9bPNSoJdGmhaGVJ-5" value="Stage_Lobby" style="swimlane;fontStyle=1;align=center;verticalAlign=top;childLayout=stackLayout;horizontal=1;startSize=26;horizontalStack=0;resizeParent=1;resizeParentMax=0;resizeLast=0;collapsible=1;marginBottom=0;fillColor=#21C0A5;strokeColor=#006658;fontColor=#5C5C5C;rounded=1;" parent="1" vertex="1">
          <mxGeometry x="-190" y="310" width="160" height="60" as="geometry" />
        </mxCell>
        <mxCell id="mh8AI9bPNSoJdGmhaGVJ-7" value="" style="line;strokeWidth=1;fillColor=none;align=left;verticalAlign=middle;spacingTop=-1;spacingLeft=3;spacingRight=3;rotatable=0;labelPosition=right;points=[];portConstraint=eastwest;strokeColor=#006658;fontColor=#5C5C5C;rounded=1;" parent="mh8AI9bPNSoJdGmhaGVJ-5" vertex="1">
          <mxGeometry y="26" width="160" height="8" as="geometry" />
        </mxCell>
        <mxCell id="mh8AI9bPNSoJdGmhaGVJ-8" value="+ main(): void" style="text;strokeColor=none;fillColor=none;align=left;verticalAlign=top;spacingLeft=4;spacingRight=4;overflow=hidden;rotatable=0;points=[[0,0.5],[1,0.5]];portConstraint=eastwest;fontColor=#5C5C5C;rounded=1;" parent="mh8AI9bPNSoJdGmhaGVJ-5" vertex="1">
          <mxGeometry y="34" width="160" height="26" as="geometry" />
        </mxCell>
        <mxCell id="mh8AI9bPNSoJdGmhaGVJ-9" value="Stage" style="swimlane;fontStyle=1;align=center;verticalAlign=top;childLayout=stackLayout;horizontal=1;startSize=26;horizontalStack=0;resizeParent=1;resizeParentMax=0;resizeLast=0;collapsible=1;marginBottom=0;fillColor=#21C0A5;strokeColor=#006658;fontColor=#5C5C5C;rounded=1;arcSize=0;" parent="1" vertex="1">
          <mxGeometry x="-8" y="170" width="160" height="60" as="geometry" />
        </mxCell>
        <mxCell id="mh8AI9bPNSoJdGmhaGVJ-10" value="" style="line;strokeWidth=1;fillColor=none;align=left;verticalAlign=middle;spacingTop=-1;spacingLeft=3;spacingRight=3;rotatable=0;labelPosition=right;points=[];portConstraint=eastwest;strokeColor=#006658;fontColor=#5C5C5C;rounded=1;" parent="mh8AI9bPNSoJdGmhaGVJ-9" vertex="1">
          <mxGeometry y="26" width="160" height="8" as="geometry" />
        </mxCell>
        <mxCell id="mh8AI9bPNSoJdGmhaGVJ-11" value="+ main(): void" style="text;strokeColor=none;fillColor=none;align=left;verticalAlign=top;spacingLeft=4;spacingRight=4;overflow=hidden;rotatable=0;points=[[0,0.5],[1,0.5]];portConstraint=eastwest;fontColor=#5C5C5C;rounded=1;" parent="mh8AI9bPNSoJdGmhaGVJ-9" vertex="1">
          <mxGeometry y="34" width="160" height="26" as="geometry" />
        </mxCell>
        <mxCell id="mh8AI9bPNSoJdGmhaGVJ-13" value="Stage_Battle" style="swimlane;fontStyle=1;align=center;verticalAlign=top;childLayout=stackLayout;horizontal=1;startSize=26;horizontalStack=0;resizeParent=1;resizeParentMax=0;resizeLast=0;collapsible=1;marginBottom=0;fillColor=#21C0A5;strokeColor=#006658;fontColor=#5C5C5C;rounded=1;" parent="1" vertex="1">
          <mxGeometry x="-16" y="310" width="176" height="138" as="geometry" />
        </mxCell>
        <mxCell id="mh8AI9bPNSoJdGmhaGVJ-14" value="+ monsters: Monster[]" style="text;strokeColor=none;fillColor=none;align=left;verticalAlign=top;spacingLeft=4;spacingRight=4;overflow=hidden;rotatable=0;points=[[0,0.5],[1,0.5]];portConstraint=eastwest;fontColor=#5C5C5C;rounded=1;" parent="mh8AI9bPNSoJdGmhaGVJ-13" vertex="1">
          <mxGeometry y="26" width="176" height="26" as="geometry" />
        </mxCell>
        <mxCell id="mh8AI9bPNSoJdGmhaGVJ-17" value="+ environments: StatusEffect[]" style="text;strokeColor=none;fillColor=none;align=left;verticalAlign=top;spacingLeft=4;spacingRight=4;overflow=hidden;rotatable=0;points=[[0,0.5],[1,0.5]];portConstraint=eastwest;fontColor=#5C5C5C;rounded=1;" parent="mh8AI9bPNSoJdGmhaGVJ-13" vertex="1">
          <mxGeometry y="52" width="176" height="26" as="geometry" />
        </mxCell>
        <mxCell id="mh8AI9bPNSoJdGmhaGVJ-15" value="" style="line;strokeWidth=1;fillColor=none;align=left;verticalAlign=middle;spacingTop=-1;spacingLeft=3;spacingRight=3;rotatable=0;labelPosition=right;points=[];portConstraint=eastwest;strokeColor=#006658;fontColor=#5C5C5C;rounded=1;" parent="mh8AI9bPNSoJdGmhaGVJ-13" vertex="1">
          <mxGeometry y="78" width="176" height="8" as="geometry" />
        </mxCell>
        <mxCell id="mh8AI9bPNSoJdGmhaGVJ-16" value="+ main(): void" style="text;strokeColor=none;fillColor=none;align=left;verticalAlign=top;spacingLeft=4;spacingRight=4;overflow=hidden;rotatable=0;points=[[0,0.5],[1,0.5]];portConstraint=eastwest;fontColor=#5C5C5C;rounded=1;" parent="mh8AI9bPNSoJdGmhaGVJ-13" vertex="1">
          <mxGeometry y="86" width="176" height="26" as="geometry" />
        </mxCell>
        <mxCell id="mh8AI9bPNSoJdGmhaGVJ-18" value="+ initialize(): void" style="text;strokeColor=none;fillColor=none;align=left;verticalAlign=top;spacingLeft=4;spacingRight=4;overflow=hidden;rotatable=0;points=[[0,0.5],[1,0.5]];portConstraint=eastwest;fontColor=#5C5C5C;rounded=1;" parent="mh8AI9bPNSoJdGmhaGVJ-13" vertex="1">
          <mxGeometry y="112" width="176" height="26" as="geometry" />
        </mxCell>
        <mxCell id="mh8AI9bPNSoJdGmhaGVJ-19" value="" style="endArrow=block;endSize=16;endFill=0;html=1;exitX=0.5;exitY=0;exitDx=0;exitDy=0;strokeColor=#006658;fontColor=#5C5C5C;edgeStyle=orthogonalEdgeStyle;" parent="1" source="mh8AI9bPNSoJdGmhaGVJ-5" target="mh8AI9bPNSoJdGmhaGVJ-9" edge="1">
          <mxGeometry width="160" relative="1" as="geometry">
            <mxPoint x="80" y="380" as="sourcePoint" />
            <mxPoint x="240" y="380" as="targetPoint" />
          </mxGeometry>
        </mxCell>
        <mxCell id="mh8AI9bPNSoJdGmhaGVJ-20" value="" style="endArrow=block;endSize=16;endFill=0;html=1;exitX=0.5;exitY=0;exitDx=0;exitDy=0;edgeStyle=orthogonalEdgeStyle;strokeColor=#006658;fontColor=#5C5C5C;" parent="1" source="mh8AI9bPNSoJdGmhaGVJ-13" target="mh8AI9bPNSoJdGmhaGVJ-9" edge="1">
          <mxGeometry width="160" relative="1" as="geometry">
            <mxPoint x="-100" y="270" as="sourcePoint" />
            <mxPoint x="-110" y="230" as="targetPoint" />
          </mxGeometry>
        </mxCell>
        <mxCell id="mh8AI9bPNSoJdGmhaGVJ-22" value="Stage_GameOver" style="swimlane;fontStyle=1;align=center;verticalAlign=top;childLayout=stackLayout;horizontal=1;startSize=26;horizontalStack=0;resizeParent=1;resizeParentMax=0;resizeLast=0;collapsible=1;marginBottom=0;fillColor=#21C0A5;strokeColor=#006658;fontColor=#5C5C5C;rounded=1;" parent="1" vertex="1">
          <mxGeometry x="280" y="310" width="160" height="60" as="geometry" />
        </mxCell>
        <mxCell id="mh8AI9bPNSoJdGmhaGVJ-23" value="" style="line;strokeWidth=1;fillColor=none;align=left;verticalAlign=middle;spacingTop=-1;spacingLeft=3;spacingRight=3;rotatable=0;labelPosition=right;points=[];portConstraint=eastwest;strokeColor=#006658;fontColor=#5C5C5C;rounded=1;" parent="mh8AI9bPNSoJdGmhaGVJ-22" vertex="1">
          <mxGeometry y="26" width="160" height="8" as="geometry" />
        </mxCell>
        <mxCell id="mh8AI9bPNSoJdGmhaGVJ-24" value="+ main(): void" style="text;strokeColor=none;fillColor=none;align=left;verticalAlign=top;spacingLeft=4;spacingRight=4;overflow=hidden;rotatable=0;points=[[0,0.5],[1,0.5]];portConstraint=eastwest;fontColor=#5C5C5C;rounded=1;" parent="mh8AI9bPNSoJdGmhaGVJ-22" vertex="1">
          <mxGeometry y="34" width="160" height="26" as="geometry" />
        </mxCell>
        <mxCell id="mh8AI9bPNSoJdGmhaGVJ-26" value="Data" style="swimlane;fontStyle=1;align=center;verticalAlign=top;childLayout=stackLayout;horizontal=1;startSize=26;horizontalStack=0;resizeParent=1;resizeParentMax=0;resizeLast=0;collapsible=1;marginBottom=0;fillColor=#21C0A5;strokeColor=#006658;fontColor=#5C5C5C;rounded=1;" parent="1" vertex="1">
          <mxGeometry x="500" y="190" width="230" height="164" as="geometry" />
        </mxCell>
        <mxCell id="mh8AI9bPNSoJdGmhaGVJ-29" value="- hp: int&#xa;" style="text;strokeColor=none;fillColor=none;align=left;verticalAlign=top;spacingLeft=4;spacingRight=4;overflow=hidden;rotatable=0;points=[[0,0.5],[1,0.5]];portConstraint=eastwest;rounded=1;fontColor=#5C5C5C;" parent="mh8AI9bPNSoJdGmhaGVJ-26" vertex="1">
          <mxGeometry y="26" width="230" height="26" as="geometry" />
        </mxCell>
        <mxCell id="mh8AI9bPNSoJdGmhaGVJ-36" value="- armor: int&#xa;" style="text;strokeColor=none;fillColor=none;align=left;verticalAlign=top;spacingLeft=4;spacingRight=4;overflow=hidden;rotatable=0;points=[[0,0.5],[1,0.5]];portConstraint=eastwest;rounded=1;fontColor=#5C5C5C;" parent="mh8AI9bPNSoJdGmhaGVJ-26" vertex="1">
          <mxGeometry y="52" width="230" height="26" as="geometry" />
        </mxCell>
        <mxCell id="mh8AI9bPNSoJdGmhaGVJ-37" value="- damage: int&#xa;" style="text;strokeColor=none;fillColor=none;align=left;verticalAlign=top;spacingLeft=4;spacingRight=4;overflow=hidden;rotatable=0;points=[[0,0.5],[1,0.5]];portConstraint=eastwest;rounded=1;fontColor=#5C5C5C;" parent="mh8AI9bPNSoJdGmhaGVJ-26" vertex="1">
          <mxGeometry y="78" width="230" height="26" as="geometry" />
        </mxCell>
        <mxCell id="mh8AI9bPNSoJdGmhaGVJ-35" value="- name: String&#xa;" style="text;strokeColor=none;fillColor=none;align=left;verticalAlign=top;spacingLeft=4;spacingRight=4;overflow=hidden;rotatable=0;points=[[0,0.5],[1,0.5]];portConstraint=eastwest;rounded=1;fontColor=#5C5C5C;" parent="mh8AI9bPNSoJdGmhaGVJ-26" vertex="1">
          <mxGeometry y="104" width="230" height="26" as="geometry" />
        </mxCell>
        <mxCell id="mh8AI9bPNSoJdGmhaGVJ-27" value="" style="line;strokeWidth=1;fillColor=none;align=left;verticalAlign=middle;spacingTop=-1;spacingLeft=3;spacingRight=3;rotatable=0;labelPosition=right;points=[];portConstraint=eastwest;strokeColor=#006658;fontColor=#5C5C5C;rounded=1;" parent="mh8AI9bPNSoJdGmhaGVJ-26" vertex="1">
          <mxGeometry y="130" width="230" height="8" as="geometry" />
        </mxCell>
        <mxCell id="mh8AI9bPNSoJdGmhaGVJ-28" value="+ getHp,getArmor,getDamage: int" style="text;strokeColor=none;fillColor=none;align=left;verticalAlign=top;spacingLeft=4;spacingRight=4;overflow=hidden;rotatable=0;points=[[0,0.5],[1,0.5]];portConstraint=eastwest;fontColor=#5C5C5C;rounded=1;" parent="mh8AI9bPNSoJdGmhaGVJ-26" vertex="1">
          <mxGeometry y="138" width="230" height="26" as="geometry" />
        </mxCell>
        <mxCell id="mh8AI9bPNSoJdGmhaGVJ-30" value="Character" style="swimlane;fontStyle=1;align=center;verticalAlign=top;childLayout=stackLayout;horizontal=1;startSize=26;horizontalStack=0;resizeParent=1;resizeParentMax=0;resizeLast=0;collapsible=1;marginBottom=0;fillColor=#21C0A5;strokeColor=#006658;fontColor=#5C5C5C;rounded=1;" parent="1" vertex="1">
          <mxGeometry x="780" y="190" width="323" height="536" as="geometry" />
        </mxCell>
        <mxCell id="mh8AI9bPNSoJdGmhaGVJ-31" value="# data: Data" style="text;strokeColor=none;fillColor=none;align=left;verticalAlign=top;spacingLeft=4;spacingRight=4;overflow=hidden;rotatable=0;points=[[0,0.5],[1,0.5]];portConstraint=eastwest;rounded=1;fontColor=#5C5C5C;" parent="mh8AI9bPNSoJdGmhaGVJ-30" vertex="1">
          <mxGeometry y="26" width="323" height="26" as="geometry" />
        </mxCell>
        <mxCell id="mh8AI9bPNSoJdGmhaGVJ-39" value="- hp: int" style="text;strokeColor=none;fillColor=none;align=left;verticalAlign=top;spacingLeft=4;spacingRight=4;overflow=hidden;rotatable=0;points=[[0,0.5],[1,0.5]];portConstraint=eastwest;rounded=1;fontColor=#5C5C5C;" parent="mh8AI9bPNSoJdGmhaGVJ-30" vertex="1">
          <mxGeometry y="52" width="323" height="26" as="geometry" />
        </mxCell>
        <mxCell id="mh8AI9bPNSoJdGmhaGVJ-40" value="- statusEffects: StatusEffect[]" style="text;strokeColor=none;fillColor=none;align=left;verticalAlign=top;spacingLeft=4;spacingRight=4;overflow=hidden;rotatable=0;points=[[0,0.5],[1,0.5]];portConstraint=eastwest;rounded=1;fontColor=#5C5C5C;" parent="mh8AI9bPNSoJdGmhaGVJ-30" vertex="1">
          <mxGeometry y="78" width="323" height="26" as="geometry" />
        </mxCell>
        <mxCell id="mh8AI9bPNSoJdGmhaGVJ-32" value="" style="line;strokeWidth=1;fillColor=none;align=left;verticalAlign=middle;spacingTop=-1;spacingLeft=3;spacingRight=3;rotatable=0;labelPosition=right;points=[];portConstraint=eastwest;strokeColor=#006658;fontColor=#5C5C5C;rounded=1;" parent="mh8AI9bPNSoJdGmhaGVJ-30" vertex="1">
          <mxGeometry y="104" width="323" height="8" as="geometry" />
        </mxCell>
        <mxCell id="mh8AI9bPNSoJdGmhaGVJ-33" value="+ hitThis(int damage): int " style="text;strokeColor=none;fillColor=none;align=left;verticalAlign=top;spacingLeft=4;spacingRight=4;overflow=hidden;rotatable=0;points=[[0,0.5],[1,0.5]];portConstraint=eastwest;fontColor=#5C5C5C;rounded=1;" parent="mh8AI9bPNSoJdGmhaGVJ-30" vertex="1">
          <mxGeometry y="112" width="323" height="26" as="geometry" />
        </mxCell>
        <mxCell id="mh8AI9bPNSoJdGmhaGVJ-54" value="+ healThis(int amount): int " style="text;strokeColor=none;fillColor=none;align=left;verticalAlign=top;spacingLeft=4;spacingRight=4;overflow=hidden;rotatable=0;points=[[0,0.5],[1,0.5]];portConstraint=eastwest;fontColor=#5C5C5C;rounded=1;" parent="mh8AI9bPNSoJdGmhaGVJ-30" vertex="1">
          <mxGeometry y="138" width="323" height="26" as="geometry" />
        </mxCell>
        <mxCell id="mh8AI9bPNSoJdGmhaGVJ-56" value="+ attack(Character target): int " style="text;strokeColor=none;fillColor=none;align=left;verticalAlign=top;spacingLeft=4;spacingRight=4;overflow=hidden;rotatable=0;points=[[0,0.5],[1,0.5]];portConstraint=eastwest;fontColor=#5C5C5C;rounded=1;" parent="mh8AI9bPNSoJdGmhaGVJ-30" vertex="1">
          <mxGeometry y="164" width="323" height="26" as="geometry" />
        </mxCell>
        <mxCell id="mh8AI9bPNSoJdGmhaGVJ-57" value="+ getHp(): int " style="text;strokeColor=none;fillColor=none;align=left;verticalAlign=top;spacingLeft=4;spacingRight=4;overflow=hidden;rotatable=0;points=[[0,0.5],[1,0.5]];portConstraint=eastwest;fontColor=#5C5C5C;rounded=1;" parent="mh8AI9bPNSoJdGmhaGVJ-30" vertex="1">
          <mxGeometry y="190" width="323" height="26" as="geometry" />
        </mxCell>
        <mxCell id="mh8AI9bPNSoJdGmhaGVJ-58" value="+ getArmor(): int " style="text;strokeColor=none;fillColor=none;align=left;verticalAlign=top;spacingLeft=4;spacingRight=4;overflow=hidden;rotatable=0;points=[[0,0.5],[1,0.5]];portConstraint=eastwest;fontColor=#5C5C5C;rounded=1;" parent="mh8AI9bPNSoJdGmhaGVJ-30" vertex="1">
          <mxGeometry y="216" width="323" height="26" as="geometry" />
        </mxCell>
        <mxCell id="mh8AI9bPNSoJdGmhaGVJ-61" value="+ getMaxHp(): int " style="text;strokeColor=none;fillColor=none;align=left;verticalAlign=top;spacingLeft=4;spacingRight=4;overflow=hidden;rotatable=0;points=[[0,0.5],[1,0.5]];portConstraint=eastwest;fontColor=#5C5C5C;rounded=1;" parent="mh8AI9bPNSoJdGmhaGVJ-30" vertex="1">
          <mxGeometry y="242" width="323" height="26" as="geometry" />
        </mxCell>
        <mxCell id="mh8AI9bPNSoJdGmhaGVJ-62" value="+ getDamage: int " style="text;strokeColor=none;fillColor=none;align=left;verticalAlign=top;spacingLeft=4;spacingRight=4;overflow=hidden;rotatable=0;points=[[0,0.5],[1,0.5]];portConstraint=eastwest;fontColor=#5C5C5C;rounded=1;" parent="mh8AI9bPNSoJdGmhaGVJ-30" vertex="1">
          <mxGeometry y="268" width="323" height="26" as="geometry" />
        </mxCell>
        <mxCell id="mh8AI9bPNSoJdGmhaGVJ-63" value="+ getName: String " style="text;strokeColor=none;fillColor=none;align=left;verticalAlign=top;spacingLeft=4;spacingRight=4;overflow=hidden;rotatable=0;points=[[0,0.5],[1,0.5]];portConstraint=eastwest;fontColor=#5C5C5C;rounded=1;" parent="mh8AI9bPNSoJdGmhaGVJ-30" vertex="1">
          <mxGeometry y="294" width="323" height="26" as="geometry" />
        </mxCell>
        <mxCell id="mh8AI9bPNSoJdGmhaGVJ-59" value="+ equip(Weapon weapon, int slotNo): boolean " style="text;strokeColor=none;fillColor=none;align=left;verticalAlign=top;spacingLeft=4;spacingRight=4;overflow=hidden;rotatable=0;points=[[0,0.5],[1,0.5]];portConstraint=eastwest;fontColor=#5C5C5C;rounded=1;" parent="mh8AI9bPNSoJdGmhaGVJ-30" vertex="1">
          <mxGeometry y="320" width="323" height="26" as="geometry" />
        </mxCell>
        <mxCell id="mh8AI9bPNSoJdGmhaGVJ-55" value="+ onDeath(): void " style="text;strokeColor=none;fillColor=none;align=left;verticalAlign=top;spacingLeft=4;spacingRight=4;overflow=hidden;rotatable=0;points=[[0,0.5],[1,0.5]];portConstraint=eastwest;fontColor=#5C5C5C;rounded=1;" parent="mh8AI9bPNSoJdGmhaGVJ-30" vertex="1">
          <mxGeometry y="346" width="323" height="26" as="geometry" />
        </mxCell>
        <mxCell id="mh8AI9bPNSoJdGmhaGVJ-53" value="+ onHit(int damage): int " style="text;strokeColor=none;fillColor=none;align=left;verticalAlign=top;spacingLeft=4;spacingRight=4;overflow=hidden;rotatable=0;points=[[0,0.5],[1,0.5]];portConstraint=eastwest;fontColor=#5C5C5C;rounded=1;" parent="mh8AI9bPNSoJdGmhaGVJ-30" vertex="1">
          <mxGeometry y="372" width="323" height="26" as="geometry" />
        </mxCell>
        <mxCell id="mh8AI9bPNSoJdGmhaGVJ-60" style="edgeStyle=orthogonalEdgeStyle;rounded=1;orthogonalLoop=1;jettySize=auto;html=1;exitX=1;exitY=0.5;exitDx=0;exitDy=0;strokeColor=#006658;fillColor=#21C0A5;fontColor=#5C5C5C;" parent="mh8AI9bPNSoJdGmhaGVJ-30" source="mh8AI9bPNSoJdGmhaGVJ-57" target="mh8AI9bPNSoJdGmhaGVJ-57" edge="1">
          <mxGeometry relative="1" as="geometry" />
        </mxCell>
        <mxCell id="mh8AI9bPNSoJdGmhaGVJ-72" value="" style="line;strokeWidth=1;fillColor=none;align=left;verticalAlign=middle;spacingTop=-1;spacingLeft=3;spacingRight=3;rotatable=0;labelPosition=right;points=[];portConstraint=eastwest;rounded=1;fontColor=#5C5C5C;" parent="mh8AI9bPNSoJdGmhaGVJ-30" vertex="1">
          <mxGeometry y="398" width="323" height="8" as="geometry" />
        </mxCell>
        <mxCell id="d4jXJWVj_I53OdiB78ze-7" value="- executeStatusEffect(): void " style="text;strokeColor=none;fillColor=none;align=left;verticalAlign=top;spacingLeft=4;spacingRight=4;overflow=hidden;rotatable=0;points=[[0,0.5],[1,0.5]];portConstraint=eastwest;fontColor=#5C5C5C;rounded=1;" vertex="1" parent="mh8AI9bPNSoJdGmhaGVJ-30">
          <mxGeometry y="406" width="323" height="26" as="geometry" />
        </mxCell>
        <mxCell id="mh8AI9bPNSoJdGmhaGVJ-64" value="+ registerStatusEffect(StatusEffect statusEffect): void " style="text;strokeColor=none;fillColor=none;align=left;verticalAlign=top;spacingLeft=4;spacingRight=4;overflow=hidden;rotatable=0;points=[[0,0.5],[1,0.5]];portConstraint=eastwest;fontColor=#5C5C5C;rounded=1;" parent="mh8AI9bPNSoJdGmhaGVJ-30" vertex="1">
          <mxGeometry y="432" width="323" height="26" as="geometry" />
        </mxCell>
        <mxCell id="mh8AI9bPNSoJdGmhaGVJ-67" value="+ unRegisterStatusEffect(StatusEffect statusEffect): void " style="text;strokeColor=none;fillColor=none;align=left;verticalAlign=top;spacingLeft=4;spacingRight=4;overflow=hidden;rotatable=0;points=[[0,0.5],[1,0.5]];portConstraint=eastwest;fontColor=#5C5C5C;rounded=1;" parent="mh8AI9bPNSoJdGmhaGVJ-30" vertex="1">
          <mxGeometry y="458" width="323" height="26" as="geometry" />
        </mxCell>
        <mxCell id="mh8AI9bPNSoJdGmhaGVJ-68" value="+ countStatusEffect(): int " style="text;strokeColor=none;fillColor=none;align=left;verticalAlign=top;spacingLeft=4;spacingRight=4;overflow=hidden;rotatable=0;points=[[0,0.5],[1,0.5]];portConstraint=eastwest;fontColor=#5C5C5C;rounded=1;" parent="mh8AI9bPNSoJdGmhaGVJ-30" vertex="1">
          <mxGeometry y="484" width="323" height="26" as="geometry" />
        </mxCell>
        <mxCell id="mh8AI9bPNSoJdGmhaGVJ-69" value="+ countStatusEffect(StatusEffect statusEffect): int " style="text;strokeColor=none;fillColor=none;align=left;verticalAlign=top;spacingLeft=4;spacingRight=4;overflow=hidden;rotatable=0;points=[[0,0.5],[1,0.5]];portConstraint=eastwest;fontColor=#5C5C5C;rounded=1;" parent="mh8AI9bPNSoJdGmhaGVJ-30" vertex="1">
          <mxGeometry y="510" width="323" height="26" as="geometry" />
        </mxCell>
        <mxCell id="mh8AI9bPNSoJdGmhaGVJ-38" value="" style="endArrow=block;endSize=16;endFill=0;html=1;strokeColor=#006658;fontColor=#5C5C5C;edgeStyle=orthogonalEdgeStyle;exitX=0.5;exitY=0;exitDx=0;exitDy=0;" parent="1" source="mh8AI9bPNSoJdGmhaGVJ-22" target="mh8AI9bPNSoJdGmhaGVJ-9" edge="1">
          <mxGeometry width="160" relative="1" as="geometry">
            <mxPoint x="-100" y="320" as="sourcePoint" />
            <mxPoint x="2" y="195" as="targetPoint" />
          </mxGeometry>
        </mxCell>
        <mxCell id="mh8AI9bPNSoJdGmhaGVJ-70" value="" style="endArrow=diamondThin;endFill=1;endSize=24;html=1;strokeColor=#006658;fillColor=#21C0A5;fontColor=#5C5C5C;entryX=0;entryY=0.5;entryDx=0;entryDy=0;edgeStyle=orthogonalEdgeStyle;" parent="1" source="mh8AI9bPNSoJdGmhaGVJ-9" target="mh8AI9bPNSoJdGmhaGVJ-2" edge="1">
          <mxGeometry width="160" relative="1" as="geometry">
            <mxPoint x="114" y="80" as="sourcePoint" />
            <mxPoint x="374" y="230" as="targetPoint" />
          </mxGeometry>
        </mxCell>
        <mxCell id="mh8AI9bPNSoJdGmhaGVJ-73" value="StatusEffect" style="swimlane;fontStyle=1;align=center;verticalAlign=top;childLayout=stackLayout;horizontal=1;startSize=26;horizontalStack=0;resizeParent=1;resizeParentMax=0;resizeLast=0;collapsible=1;marginBottom=0;fillColor=#21C0A5;strokeColor=#006658;fontColor=#5C5C5C;rounded=1;" parent="1" vertex="1">
          <mxGeometry x="120" y="620" width="230" height="138" as="geometry" />
        </mxCell>
        <mxCell id="mh8AI9bPNSoJdGmhaGVJ-78" value="" style="line;strokeWidth=1;fillColor=none;align=left;verticalAlign=middle;spacingTop=-1;spacingLeft=3;spacingRight=3;rotatable=0;labelPosition=right;points=[];portConstraint=eastwest;strokeColor=#006658;fontColor=#5C5C5C;rounded=1;" parent="mh8AI9bPNSoJdGmhaGVJ-73" vertex="1">
          <mxGeometry y="26" width="230" height="8" as="geometry" />
        </mxCell>
        <mxCell id="d4jXJWVj_I53OdiB78ze-3" value="+ execute(Character Owner): int" style="text;strokeColor=none;fillColor=none;align=left;verticalAlign=top;spacingLeft=4;spacingRight=4;overflow=hidden;rotatable=0;points=[[0,0.5],[1,0.5]];portConstraint=eastwest;fontColor=#5C5C5C;rounded=1;" vertex="1" parent="mh8AI9bPNSoJdGmhaGVJ-73">
          <mxGeometry y="34" width="230" height="26" as="geometry" />
        </mxCell>
        <mxCell id="mh8AI9bPNSoJdGmhaGVJ-79" value="+ modifyDamage(int initialDamage): int" style="text;strokeColor=none;fillColor=none;align=left;verticalAlign=top;spacingLeft=4;spacingRight=4;overflow=hidden;rotatable=0;points=[[0,0.5],[1,0.5]];portConstraint=eastwest;fontColor=#5C5C5C;rounded=1;" parent="mh8AI9bPNSoJdGmhaGVJ-73" vertex="1">
          <mxGeometry y="60" width="230" height="26" as="geometry" />
        </mxCell>
        <mxCell id="d4jXJWVj_I53OdiB78ze-1" value="+ modifyArmor(int initialArmor): int" style="text;strokeColor=none;fillColor=none;align=left;verticalAlign=top;spacingLeft=4;spacingRight=4;overflow=hidden;rotatable=0;points=[[0,0.5],[1,0.5]];portConstraint=eastwest;fontColor=#5C5C5C;rounded=1;" vertex="1" parent="mh8AI9bPNSoJdGmhaGVJ-73">
          <mxGeometry y="86" width="230" height="26" as="geometry" />
        </mxCell>
        <mxCell id="d4jXJWVj_I53OdiB78ze-2" value="+ modifyMaxHp(int initialMaxHp): int" style="text;strokeColor=none;fillColor=none;align=left;verticalAlign=top;spacingLeft=4;spacingRight=4;overflow=hidden;rotatable=0;points=[[0,0.5],[1,0.5]];portConstraint=eastwest;fontColor=#5C5C5C;rounded=1;" vertex="1" parent="mh8AI9bPNSoJdGmhaGVJ-73">
          <mxGeometry y="112" width="230" height="26" as="geometry" />
        </mxCell>
        <mxCell id="d4jXJWVj_I53OdiB78ze-6" value="1" style="endArrow=open;html=1;endSize=12;startArrow=diamondThin;startSize=14;startFill=0;edgeStyle=orthogonalEdgeStyle;align=left;verticalAlign=bottom;exitX=0;exitY=0.5;exitDx=0;exitDy=0;" edge="1" parent="1" source="mh8AI9bPNSoJdGmhaGVJ-40" target="mh8AI9bPNSoJdGmhaGVJ-73">
          <mxGeometry x="-1" y="3" relative="1" as="geometry">
            <mxPoint x="1020" y="410" as="sourcePoint" />
            <mxPoint x="1180" y="410" as="targetPoint" />
            <Array as="points">
              <mxPoint x="760" y="281" />
              <mxPoint x="760" y="460" />
              <mxPoint x="235" y="460" />
            </Array>
          </mxGeometry>
        </mxCell>
        <mxCell id="mh8AI9bPNSoJdGmhaGVJ-34" value="" style="endArrow=open;startArrow=circlePlus;endFill=0;startFill=0;endSize=8;html=1;strokeColor=#006658;fillColor=#21C0A5;fontColor=#5C5C5C;entryX=1;entryY=0.5;entryDx=0;entryDy=0;edgeStyle=orthogonalEdgeStyle;" parent="1" source="mh8AI9bPNSoJdGmhaGVJ-31" target="mh8AI9bPNSoJdGmhaGVJ-37" edge="1">
          <mxGeometry width="160" relative="1" as="geometry">
            <mxPoint x="1227" y="80" as="sourcePoint" />
            <mxPoint x="1247" y="49" as="targetPoint" />
          </mxGeometry>
        </mxCell>
        <mxCell id="d4jXJWVj_I53OdiB78ze-8" value="StatusEffect_Poision" style="swimlane;fontStyle=1;align=center;verticalAlign=top;childLayout=stackLayout;horizontal=1;startSize=26;horizontalStack=0;resizeParent=1;resizeParentMax=0;resizeLast=0;collapsible=1;marginBottom=0;fillColor=#21C0A5;strokeColor=#006658;fontColor=#5C5C5C;rounded=1;" vertex="1" parent="1">
          <mxGeometry x="264" y="816" width="230" height="86" as="geometry" />
        </mxCell>
        <mxCell id="d4jXJWVj_I53OdiB78ze-14" value="- strength: int" style="text;strokeColor=none;fillColor=none;align=left;verticalAlign=top;spacingLeft=4;spacingRight=4;overflow=hidden;rotatable=0;points=[[0,0.5],[1,0.5]];portConstraint=eastwest;fontColor=#5C5C5C;rounded=1;" vertex="1" parent="d4jXJWVj_I53OdiB78ze-8">
          <mxGeometry y="26" width="230" height="26" as="geometry" />
        </mxCell>
        <mxCell id="d4jXJWVj_I53OdiB78ze-9" value="" style="line;strokeWidth=1;fillColor=none;align=left;verticalAlign=middle;spacingTop=-1;spacingLeft=3;spacingRight=3;rotatable=0;labelPosition=right;points=[];portConstraint=eastwest;strokeColor=#006658;fontColor=#5C5C5C;rounded=1;" vertex="1" parent="d4jXJWVj_I53OdiB78ze-8">
          <mxGeometry y="52" width="230" height="8" as="geometry" />
        </mxCell>
        <mxCell id="d4jXJWVj_I53OdiB78ze-10" value="+ execute(Character Owner): int" style="text;strokeColor=none;fillColor=none;align=left;verticalAlign=top;spacingLeft=4;spacingRight=4;overflow=hidden;rotatable=0;points=[[0,0.5],[1,0.5]];portConstraint=eastwest;fontColor=#5C5C5C;rounded=1;" vertex="1" parent="d4jXJWVj_I53OdiB78ze-8">
          <mxGeometry y="60" width="230" height="26" as="geometry" />
        </mxCell>
        <mxCell id="d4jXJWVj_I53OdiB78ze-15" value="StatusEffect_ArmorBreak" style="swimlane;fontStyle=1;align=center;verticalAlign=top;childLayout=stackLayout;horizontal=1;startSize=26;horizontalStack=0;resizeParent=1;resizeParentMax=0;resizeLast=0;collapsible=1;marginBottom=0;fillColor=#21C0A5;strokeColor=#006658;fontColor=#5C5C5C;rounded=1;" vertex="1" parent="1">
          <mxGeometry x="-20" y="816" width="230" height="86" as="geometry" />
        </mxCell>
        <mxCell id="d4jXJWVj_I53OdiB78ze-16" value="- strength: int" style="text;strokeColor=none;fillColor=none;align=left;verticalAlign=top;spacingLeft=4;spacingRight=4;overflow=hidden;rotatable=0;points=[[0,0.5],[1,0.5]];portConstraint=eastwest;fontColor=#5C5C5C;rounded=1;" vertex="1" parent="d4jXJWVj_I53OdiB78ze-15">
          <mxGeometry y="26" width="230" height="26" as="geometry" />
        </mxCell>
        <mxCell id="d4jXJWVj_I53OdiB78ze-17" value="" style="line;strokeWidth=1;fillColor=none;align=left;verticalAlign=middle;spacingTop=-1;spacingLeft=3;spacingRight=3;rotatable=0;labelPosition=right;points=[];portConstraint=eastwest;strokeColor=#006658;fontColor=#5C5C5C;rounded=1;" vertex="1" parent="d4jXJWVj_I53OdiB78ze-15">
          <mxGeometry y="52" width="230" height="8" as="geometry" />
        </mxCell>
        <mxCell id="d4jXJWVj_I53OdiB78ze-20" value="+ modifyArmor(int initialArmor): int" style="text;strokeColor=none;fillColor=none;align=left;verticalAlign=top;spacingLeft=4;spacingRight=4;overflow=hidden;rotatable=0;points=[[0,0.5],[1,0.5]];portConstraint=eastwest;fontColor=#5C5C5C;rounded=1;" vertex="1" parent="d4jXJWVj_I53OdiB78ze-15">
          <mxGeometry y="60" width="230" height="26" as="geometry" />
        </mxCell>
        <mxCell id="d4jXJWVj_I53OdiB78ze-22" value="" style="endArrow=block;endSize=16;endFill=0;html=1;edgeStyle=orthogonalEdgeStyle;" edge="1" parent="1" source="d4jXJWVj_I53OdiB78ze-8" target="mh8AI9bPNSoJdGmhaGVJ-73">
          <mxGeometry width="160" relative="1" as="geometry">
            <mxPoint x="10" y="900" as="sourcePoint" />
            <mxPoint x="100" y="800" as="targetPoint" />
          </mxGeometry>
        </mxCell>
        <mxCell id="d4jXJWVj_I53OdiB78ze-23" value="" style="endArrow=block;endSize=16;endFill=0;html=1;edgeStyle=orthogonalEdgeStyle;" edge="1" parent="1" source="d4jXJWVj_I53OdiB78ze-15" target="mh8AI9bPNSoJdGmhaGVJ-73">
          <mxGeometry width="160" relative="1" as="geometry">
            <mxPoint x="375" y="826" as="sourcePoint" />
            <mxPoint x="165" y="778" as="targetPoint" />
          </mxGeometry>
        </mxCell>
        <mxCell id="d4jXJWVj_I53OdiB78ze-24" value="Player" style="swimlane;fontStyle=1;align=center;verticalAlign=top;childLayout=stackLayout;horizontal=1;startSize=26;horizontalStack=0;resizeParent=1;resizeParentMax=0;resizeLast=0;collapsible=1;marginBottom=0;fillColor=#21C0A5;strokeColor=#006658;fontColor=#5C5C5C;rounded=1;" vertex="1" parent="1">
          <mxGeometry x="990" y="800" width="323" height="216" as="geometry" />
        </mxCell>
        <mxCell id="d4jXJWVj_I53OdiB78ze-47" value="- leve: int" style="text;strokeColor=none;fillColor=none;align=left;verticalAlign=top;spacingLeft=4;spacingRight=4;overflow=hidden;rotatable=0;points=[[0,0.5],[1,0.5]];portConstraint=eastwest;rounded=1;fontColor=#5C5C5C;" vertex="1" parent="d4jXJWVj_I53OdiB78ze-24">
          <mxGeometry y="26" width="323" height="26" as="geometry" />
        </mxCell>
        <mxCell id="d4jXJWVj_I53OdiB78ze-26" value="- slot: Weapon[]" style="text;strokeColor=none;fillColor=none;align=left;verticalAlign=top;spacingLeft=4;spacingRight=4;overflow=hidden;rotatable=0;points=[[0,0.5],[1,0.5]];portConstraint=eastwest;rounded=1;fontColor=#5C5C5C;" vertex="1" parent="d4jXJWVj_I53OdiB78ze-24">
          <mxGeometry y="52" width="323" height="26" as="geometry" />
        </mxCell>
        <mxCell id="d4jXJWVj_I53OdiB78ze-28" value="" style="line;strokeWidth=1;fillColor=none;align=left;verticalAlign=middle;spacingTop=-1;spacingLeft=3;spacingRight=3;rotatable=0;labelPosition=right;points=[];portConstraint=eastwest;strokeColor=#006658;fontColor=#5C5C5C;rounded=1;" vertex="1" parent="d4jXJWVj_I53OdiB78ze-24">
          <mxGeometry y="78" width="323" height="8" as="geometry" />
        </mxCell>
        <mxCell id="d4jXJWVj_I53OdiB78ze-76" value="+ attack(Character target): int " style="text;strokeColor=none;fillColor=none;align=left;verticalAlign=top;spacingLeft=4;spacingRight=4;overflow=hidden;rotatable=0;points=[[0,0.5],[1,0.5]];portConstraint=eastwest;fontColor=#5C5C5C;rounded=1;" vertex="1" parent="d4jXJWVj_I53OdiB78ze-24">
          <mxGeometry y="86" width="323" height="26" as="geometry" />
        </mxCell>
        <mxCell id="d4jXJWVj_I53OdiB78ze-33" value="+ getArmor(): int " style="text;strokeColor=none;fillColor=none;align=left;verticalAlign=top;spacingLeft=4;spacingRight=4;overflow=hidden;rotatable=0;points=[[0,0.5],[1,0.5]];portConstraint=eastwest;fontColor=#5C5C5C;rounded=1;" vertex="1" parent="d4jXJWVj_I53OdiB78ze-24">
          <mxGeometry y="112" width="323" height="26" as="geometry" />
        </mxCell>
        <mxCell id="d4jXJWVj_I53OdiB78ze-34" value="+ getMaxHp(): int " style="text;strokeColor=none;fillColor=none;align=left;verticalAlign=top;spacingLeft=4;spacingRight=4;overflow=hidden;rotatable=0;points=[[0,0.5],[1,0.5]];portConstraint=eastwest;fontColor=#5C5C5C;rounded=1;" vertex="1" parent="d4jXJWVj_I53OdiB78ze-24">
          <mxGeometry y="138" width="323" height="26" as="geometry" />
        </mxCell>
        <mxCell id="d4jXJWVj_I53OdiB78ze-37" value="+ equip(Weapon weapon, int slotNo): boolean " style="text;strokeColor=none;fillColor=none;align=left;verticalAlign=top;spacingLeft=4;spacingRight=4;overflow=hidden;rotatable=0;points=[[0,0.5],[1,0.5]];portConstraint=eastwest;fontColor=#5C5C5C;rounded=1;" vertex="1" parent="d4jXJWVj_I53OdiB78ze-24">
          <mxGeometry y="164" width="323" height="26" as="geometry" />
        </mxCell>
        <mxCell id="d4jXJWVj_I53OdiB78ze-38" value="+ onDeath(): void " style="text;strokeColor=none;fillColor=none;align=left;verticalAlign=top;spacingLeft=4;spacingRight=4;overflow=hidden;rotatable=0;points=[[0,0.5],[1,0.5]];portConstraint=eastwest;fontColor=#5C5C5C;rounded=1;" vertex="1" parent="d4jXJWVj_I53OdiB78ze-24">
          <mxGeometry y="190" width="323" height="26" as="geometry" />
        </mxCell>
        <mxCell id="d4jXJWVj_I53OdiB78ze-40" style="edgeStyle=orthogonalEdgeStyle;rounded=1;orthogonalLoop=1;jettySize=auto;html=1;exitX=1;exitY=0.5;exitDx=0;exitDy=0;strokeColor=#006658;fillColor=#21C0A5;fontColor=#5C5C5C;" edge="1" parent="d4jXJWVj_I53OdiB78ze-24">
          <mxGeometry relative="1" as="geometry">
            <mxPoint x="323" y="125" as="sourcePoint" />
            <mxPoint x="323" y="125" as="targetPoint" />
          </mxGeometry>
        </mxCell>
        <mxCell id="d4jXJWVj_I53OdiB78ze-48" value="Monster" style="swimlane;fontStyle=1;align=center;verticalAlign=top;childLayout=stackLayout;horizontal=1;startSize=26;horizontalStack=0;resizeParent=1;resizeParentMax=0;resizeLast=0;collapsible=1;marginBottom=0;fillColor=#21C0A5;strokeColor=#006658;fontColor=#5C5C5C;rounded=1;" vertex="1" parent="1">
          <mxGeometry x="610" y="800" width="323" height="138" as="geometry" />
        </mxCell>
        <mxCell id="d4jXJWVj_I53OdiB78ze-51" value="" style="line;strokeWidth=1;fillColor=none;align=left;verticalAlign=middle;spacingTop=-1;spacingLeft=3;spacingRight=3;rotatable=0;labelPosition=right;points=[];portConstraint=eastwest;strokeColor=#006658;fontColor=#5C5C5C;rounded=1;" vertex="1" parent="d4jXJWVj_I53OdiB78ze-48">
          <mxGeometry y="26" width="323" height="8" as="geometry" />
        </mxCell>
        <mxCell id="d4jXJWVj_I53OdiB78ze-77" value="+ attack(Character target): int " style="text;strokeColor=none;fillColor=none;align=left;verticalAlign=top;spacingLeft=4;spacingRight=4;overflow=hidden;rotatable=0;points=[[0,0.5],[1,0.5]];portConstraint=eastwest;fontColor=#5C5C5C;rounded=1;" vertex="1" parent="d4jXJWVj_I53OdiB78ze-48">
          <mxGeometry y="34" width="323" height="26" as="geometry" />
        </mxCell>
        <mxCell id="d4jXJWVj_I53OdiB78ze-91" value="- isEquippable(Weapon weapon,int slotNo): boolean " style="text;strokeColor=none;fillColor=none;align=left;verticalAlign=top;spacingLeft=4;spacingRight=4;overflow=hidden;rotatable=0;points=[[0,0.5],[1,0.5]];portConstraint=eastwest;fontColor=#5C5C5C;rounded=1;" vertex="1" parent="d4jXJWVj_I53OdiB78ze-48">
          <mxGeometry y="60" width="323" height="26" as="geometry" />
        </mxCell>
        <mxCell id="d4jXJWVj_I53OdiB78ze-60" value="+ onHit(int damage): int " style="text;strokeColor=none;fillColor=none;align=left;verticalAlign=top;spacingLeft=4;spacingRight=4;overflow=hidden;rotatable=0;points=[[0,0.5],[1,0.5]];portConstraint=eastwest;fontColor=#5C5C5C;rounded=1;" vertex="1" parent="d4jXJWVj_I53OdiB78ze-48">
          <mxGeometry y="86" width="323" height="26" as="geometry" />
        </mxCell>
        <mxCell id="d4jXJWVj_I53OdiB78ze-58" style="edgeStyle=orthogonalEdgeStyle;rounded=1;orthogonalLoop=1;jettySize=auto;html=1;exitX=1;exitY=0.5;exitDx=0;exitDy=0;strokeColor=#006658;fillColor=#21C0A5;fontColor=#5C5C5C;" edge="1" parent="d4jXJWVj_I53OdiB78ze-48">
          <mxGeometry relative="1" as="geometry">
            <mxPoint x="323" y="125" as="sourcePoint" />
            <mxPoint x="323" y="125" as="targetPoint" />
          </mxGeometry>
        </mxCell>
        <mxCell id="d4jXJWVj_I53OdiB78ze-57" value="+ onDeath(): void " style="text;strokeColor=none;fillColor=none;align=left;verticalAlign=top;spacingLeft=4;spacingRight=4;overflow=hidden;rotatable=0;points=[[0,0.5],[1,0.5]];portConstraint=eastwest;fontColor=#5C5C5C;rounded=1;" vertex="1" parent="d4jXJWVj_I53OdiB78ze-48">
          <mxGeometry y="112" width="323" height="26" as="geometry" />
        </mxCell>
        <mxCell id="d4jXJWVj_I53OdiB78ze-61" value="" style="endArrow=block;endSize=16;endFill=0;html=1;edgeStyle=orthogonalEdgeStyle;" edge="1" parent="1" source="d4jXJWVj_I53OdiB78ze-24" target="mh8AI9bPNSoJdGmhaGVJ-30">
          <mxGeometry width="160" relative="1" as="geometry">
            <mxPoint x="1265" y="426" as="sourcePoint" />
            <mxPoint x="1405" y="368" as="targetPoint" />
          </mxGeometry>
        </mxCell>
        <mxCell id="d4jXJWVj_I53OdiB78ze-62" value="" style="endArrow=block;endSize=16;endFill=0;html=1;edgeStyle=orthogonalEdgeStyle;" edge="1" parent="1" source="d4jXJWVj_I53OdiB78ze-48" target="mh8AI9bPNSoJdGmhaGVJ-30">
          <mxGeometry width="160" relative="1" as="geometry">
            <mxPoint x="731.5" y="810" as="sourcePoint" />
            <mxPoint x="951.5" y="735.9999999999998" as="targetPoint" />
          </mxGeometry>
        </mxCell>
        <mxCell id="d4jXJWVj_I53OdiB78ze-64" value="1" style="endArrow=none;html=1;endSize=12;startArrow=diamondThin;startSize=14;startFill=0;edgeStyle=orthogonalEdgeStyle;align=left;verticalAlign=bottom;exitX=1;exitY=0.5;exitDx=0;exitDy=0;entryX=0.25;entryY=0;entryDx=0;entryDy=0;endFill=0;" edge="1" parent="1" source="mh8AI9bPNSoJdGmhaGVJ-14" target="d4jXJWVj_I53OdiB78ze-48">
          <mxGeometry x="-1" y="3" relative="1" as="geometry">
            <mxPoint x="290" y="620" as="sourcePoint" />
            <mxPoint x="450" y="620" as="targetPoint" />
            <Array as="points">
              <mxPoint x="210" y="349" />
              <mxPoint x="210" y="410" />
              <mxPoint x="691" y="410" />
            </Array>
          </mxGeometry>
        </mxCell>
        <mxCell id="d4jXJWVj_I53OdiB78ze-65" value="1" style="endArrow=open;html=1;endSize=12;startArrow=diamondThin;startSize=14;startFill=0;edgeStyle=orthogonalEdgeStyle;align=left;verticalAlign=bottom;exitX=1;exitY=0.5;exitDx=0;exitDy=0;entryX=0.5;entryY=0;entryDx=0;entryDy=0;" edge="1" parent="1" source="mh8AI9bPNSoJdGmhaGVJ-17" target="mh8AI9bPNSoJdGmhaGVJ-73">
          <mxGeometry x="-1" y="3" relative="1" as="geometry">
            <mxPoint x="170" y="380" as="sourcePoint" />
            <mxPoint x="700.7499999999995" y="830.9999999999998" as="targetPoint" />
            <Array as="points">
              <mxPoint x="200" y="375" />
              <mxPoint x="200" y="441" />
              <mxPoint x="235" y="441" />
            </Array>
          </mxGeometry>
        </mxCell>
        <mxCell id="d4jXJWVj_I53OdiB78ze-66" value="Weapon" style="swimlane;fontStyle=1;align=center;verticalAlign=top;childLayout=stackLayout;horizontal=1;startSize=26;horizontalStack=0;resizeParent=1;resizeParentMax=0;resizeLast=0;collapsible=1;marginBottom=0;fillColor=#21C0A5;strokeColor=#006658;fontColor=#5C5C5C;rounded=1;" vertex="1" parent="1">
          <mxGeometry x="81" y="1070" width="323" height="164" as="geometry" />
        </mxCell>
        <mxCell id="d4jXJWVj_I53OdiB78ze-67" value="# damage, attspeed: int" style="text;strokeColor=none;fillColor=none;align=left;verticalAlign=top;spacingLeft=4;spacingRight=4;overflow=hidden;rotatable=0;points=[[0,0.5],[1,0.5]];portConstraint=eastwest;rounded=1;fontColor=#5C5C5C;" vertex="1" parent="d4jXJWVj_I53OdiB78ze-66">
          <mxGeometry y="26" width="323" height="26" as="geometry" />
        </mxCell>
        <mxCell id="d4jXJWVj_I53OdiB78ze-68" value="# name: String" style="text;strokeColor=none;fillColor=none;align=left;verticalAlign=top;spacingLeft=4;spacingRight=4;overflow=hidden;rotatable=0;points=[[0,0.5],[1,0.5]];portConstraint=eastwest;rounded=1;fontColor=#5C5C5C;" vertex="1" parent="d4jXJWVj_I53OdiB78ze-66">
          <mxGeometry y="52" width="323" height="26" as="geometry" />
        </mxCell>
        <mxCell id="d4jXJWVj_I53OdiB78ze-78" value="# elements: Element[]" style="text;strokeColor=none;fillColor=none;align=left;verticalAlign=top;spacingLeft=4;spacingRight=4;overflow=hidden;rotatable=0;points=[[0,0.5],[1,0.5]];portConstraint=eastwest;rounded=1;fontColor=#5C5C5C;" vertex="1" parent="d4jXJWVj_I53OdiB78ze-66">
          <mxGeometry y="78" width="323" height="26" as="geometry" />
        </mxCell>
        <mxCell id="d4jXJWVj_I53OdiB78ze-69" value="" style="line;strokeWidth=1;fillColor=none;align=left;verticalAlign=middle;spacingTop=-1;spacingLeft=3;spacingRight=3;rotatable=0;labelPosition=right;points=[];portConstraint=eastwest;strokeColor=#006658;fontColor=#5C5C5C;rounded=1;" vertex="1" parent="d4jXJWVj_I53OdiB78ze-66">
          <mxGeometry y="104" width="323" height="8" as="geometry" />
        </mxCell>
        <mxCell id="d4jXJWVj_I53OdiB78ze-70" value="+ attack(Character target): int " style="text;strokeColor=none;fillColor=none;align=left;verticalAlign=top;spacingLeft=4;spacingRight=4;overflow=hidden;rotatable=0;points=[[0,0.5],[1,0.5]];portConstraint=eastwest;fontColor=#5C5C5C;rounded=1;" vertex="1" parent="d4jXJWVj_I53OdiB78ze-66">
          <mxGeometry y="112" width="323" height="26" as="geometry" />
        </mxCell>
        <mxCell id="d4jXJWVj_I53OdiB78ze-74" value="+ getDamage(): int " style="text;strokeColor=none;fillColor=none;align=left;verticalAlign=top;spacingLeft=4;spacingRight=4;overflow=hidden;rotatable=0;points=[[0,0.5],[1,0.5]];portConstraint=eastwest;fontColor=#5C5C5C;rounded=1;" vertex="1" parent="d4jXJWVj_I53OdiB78ze-66">
          <mxGeometry y="138" width="323" height="26" as="geometry" />
        </mxCell>
        <mxCell id="d4jXJWVj_I53OdiB78ze-75" style="edgeStyle=orthogonalEdgeStyle;rounded=1;orthogonalLoop=1;jettySize=auto;html=1;exitX=1;exitY=0.5;exitDx=0;exitDy=0;strokeColor=#006658;fillColor=#21C0A5;fontColor=#5C5C5C;" edge="1" parent="d4jXJWVj_I53OdiB78ze-66">
          <mxGeometry relative="1" as="geometry">
            <mxPoint x="323" y="125" as="sourcePoint" />
            <mxPoint x="323" y="125" as="targetPoint" />
          </mxGeometry>
        </mxCell>
        <mxCell id="d4jXJWVj_I53OdiB78ze-79" value="Weapon_Sword" style="swimlane;fontStyle=1;align=center;verticalAlign=top;childLayout=stackLayout;horizontal=1;startSize=26;horizontalStack=0;resizeParent=1;resizeParentMax=0;resizeLast=0;collapsible=1;marginBottom=0;fillColor=#21C0A5;strokeColor=#006658;fontColor=#5C5C5C;rounded=1;" vertex="1" parent="1">
          <mxGeometry x="311" y="1268" width="323" height="60" as="geometry" />
        </mxCell>
        <mxCell id="d4jXJWVj_I53OdiB78ze-83" value="" style="line;strokeWidth=1;fillColor=none;align=left;verticalAlign=middle;spacingTop=-1;spacingLeft=3;spacingRight=3;rotatable=0;labelPosition=right;points=[];portConstraint=eastwest;strokeColor=#006658;fontColor=#5C5C5C;rounded=1;" vertex="1" parent="d4jXJWVj_I53OdiB78ze-79">
          <mxGeometry y="26" width="323" height="8" as="geometry" />
        </mxCell>
        <mxCell id="d4jXJWVj_I53OdiB78ze-84" value="+ attack(Character target): int " style="text;strokeColor=none;fillColor=none;align=left;verticalAlign=top;spacingLeft=4;spacingRight=4;overflow=hidden;rotatable=0;points=[[0,0.5],[1,0.5]];portConstraint=eastwest;fontColor=#5C5C5C;rounded=1;" vertex="1" parent="d4jXJWVj_I53OdiB78ze-79">
          <mxGeometry y="34" width="323" height="26" as="geometry" />
        </mxCell>
        <mxCell id="d4jXJWVj_I53OdiB78ze-86" style="edgeStyle=orthogonalEdgeStyle;rounded=1;orthogonalLoop=1;jettySize=auto;html=1;exitX=1;exitY=0.5;exitDx=0;exitDy=0;strokeColor=#006658;fillColor=#21C0A5;fontColor=#5C5C5C;" edge="1" parent="d4jXJWVj_I53OdiB78ze-79">
          <mxGeometry relative="1" as="geometry">
            <mxPoint x="323" y="125" as="sourcePoint" />
            <mxPoint x="323" y="125" as="targetPoint" />
          </mxGeometry>
        </mxCell>
        <mxCell id="d4jXJWVj_I53OdiB78ze-87" value="Weapon_Bow" style="swimlane;fontStyle=1;align=center;verticalAlign=top;childLayout=stackLayout;horizontal=1;startSize=26;horizontalStack=0;resizeParent=1;resizeParentMax=0;resizeLast=0;collapsible=1;marginBottom=0;fillColor=#21C0A5;strokeColor=#006658;fontColor=#5C5C5C;rounded=1;" vertex="1" parent="1">
          <mxGeometry x="311" y="1350" width="323" height="60" as="geometry" />
        </mxCell>
        <mxCell id="d4jXJWVj_I53OdiB78ze-88" value="" style="line;strokeWidth=1;fillColor=none;align=left;verticalAlign=middle;spacingTop=-1;spacingLeft=3;spacingRight=3;rotatable=0;labelPosition=right;points=[];portConstraint=eastwest;strokeColor=#006658;fontColor=#5C5C5C;rounded=1;" vertex="1" parent="d4jXJWVj_I53OdiB78ze-87">
          <mxGeometry y="26" width="323" height="8" as="geometry" />
        </mxCell>
        <mxCell id="d4jXJWVj_I53OdiB78ze-89" value="+ attack(Character target): int " style="text;strokeColor=none;fillColor=none;align=left;verticalAlign=top;spacingLeft=4;spacingRight=4;overflow=hidden;rotatable=0;points=[[0,0.5],[1,0.5]];portConstraint=eastwest;fontColor=#5C5C5C;rounded=1;" vertex="1" parent="d4jXJWVj_I53OdiB78ze-87">
          <mxGeometry y="34" width="323" height="26" as="geometry" />
        </mxCell>
        <mxCell id="d4jXJWVj_I53OdiB78ze-90" style="edgeStyle=orthogonalEdgeStyle;rounded=1;orthogonalLoop=1;jettySize=auto;html=1;exitX=1;exitY=0.5;exitDx=0;exitDy=0;strokeColor=#006658;fillColor=#21C0A5;fontColor=#5C5C5C;" edge="1" parent="d4jXJWVj_I53OdiB78ze-87">
          <mxGeometry relative="1" as="geometry">
            <mxPoint x="323" y="125" as="sourcePoint" />
            <mxPoint x="323" y="125" as="targetPoint" />
          </mxGeometry>
        </mxCell>
        <mxCell id="d4jXJWVj_I53OdiB78ze-92" value="Weapon_Arrow" style="swimlane;fontStyle=1;align=center;verticalAlign=top;childLayout=stackLayout;horizontal=1;startSize=26;horizontalStack=0;resizeParent=1;resizeParentMax=0;resizeLast=0;collapsible=1;marginBottom=0;fillColor=#21C0A5;strokeColor=#006658;fontColor=#5C5C5C;rounded=1;" vertex="1" parent="1">
          <mxGeometry x="311" y="1430" width="323" height="60" as="geometry" />
        </mxCell>
        <mxCell id="d4jXJWVj_I53OdiB78ze-93" value="" style="line;strokeWidth=1;fillColor=none;align=left;verticalAlign=middle;spacingTop=-1;spacingLeft=3;spacingRight=3;rotatable=0;labelPosition=right;points=[];portConstraint=eastwest;strokeColor=#006658;fontColor=#5C5C5C;rounded=1;" vertex="1" parent="d4jXJWVj_I53OdiB78ze-92">
          <mxGeometry y="26" width="323" height="8" as="geometry" />
        </mxCell>
        <mxCell id="d4jXJWVj_I53OdiB78ze-94" value="+ attack(Character target): int " style="text;strokeColor=none;fillColor=none;align=left;verticalAlign=top;spacingLeft=4;spacingRight=4;overflow=hidden;rotatable=0;points=[[0,0.5],[1,0.5]];portConstraint=eastwest;fontColor=#5C5C5C;rounded=1;" vertex="1" parent="d4jXJWVj_I53OdiB78ze-92">
          <mxGeometry y="34" width="323" height="26" as="geometry" />
        </mxCell>
        <mxCell id="d4jXJWVj_I53OdiB78ze-95" style="edgeStyle=orthogonalEdgeStyle;rounded=1;orthogonalLoop=1;jettySize=auto;html=1;exitX=1;exitY=0.5;exitDx=0;exitDy=0;strokeColor=#006658;fillColor=#21C0A5;fontColor=#5C5C5C;" edge="1" parent="d4jXJWVj_I53OdiB78ze-92">
          <mxGeometry relative="1" as="geometry">
            <mxPoint x="323" y="125" as="sourcePoint" />
            <mxPoint x="323" y="125" as="targetPoint" />
          </mxGeometry>
        </mxCell>
        <mxCell id="d4jXJWVj_I53OdiB78ze-96" value="Weapon_PoisionArrow" style="swimlane;fontStyle=1;align=center;verticalAlign=top;childLayout=stackLayout;horizontal=1;startSize=26;horizontalStack=0;resizeParent=1;resizeParentMax=0;resizeLast=0;collapsible=1;marginBottom=0;fillColor=#21C0A5;strokeColor=#006658;fontColor=#5C5C5C;rounded=1;" vertex="1" parent="1">
          <mxGeometry x="421" y="1534" width="323" height="86" as="geometry" />
        </mxCell>
        <mxCell id="d4jXJWVj_I53OdiB78ze-100" value="- statusEffect: statuseffect" style="text;strokeColor=none;fillColor=none;align=left;verticalAlign=top;spacingLeft=4;spacingRight=4;overflow=hidden;rotatable=0;points=[[0,0.5],[1,0.5]];portConstraint=eastwest;fontColor=#5C5C5C;rounded=1;" vertex="1" parent="d4jXJWVj_I53OdiB78ze-96">
          <mxGeometry y="26" width="323" height="26" as="geometry" />
        </mxCell>
        <mxCell id="d4jXJWVj_I53OdiB78ze-97" value="" style="line;strokeWidth=1;fillColor=none;align=left;verticalAlign=middle;spacingTop=-1;spacingLeft=3;spacingRight=3;rotatable=0;labelPosition=right;points=[];portConstraint=eastwest;strokeColor=#006658;fontColor=#5C5C5C;rounded=1;" vertex="1" parent="d4jXJWVj_I53OdiB78ze-96">
          <mxGeometry y="52" width="323" height="8" as="geometry" />
        </mxCell>
        <mxCell id="d4jXJWVj_I53OdiB78ze-98" value="+ attack(Character target): int " style="text;strokeColor=none;fillColor=none;align=left;verticalAlign=top;spacingLeft=4;spacingRight=4;overflow=hidden;rotatable=0;points=[[0,0.5],[1,0.5]];portConstraint=eastwest;fontColor=#5C5C5C;rounded=1;" vertex="1" parent="d4jXJWVj_I53OdiB78ze-96">
          <mxGeometry y="60" width="323" height="26" as="geometry" />
        </mxCell>
        <mxCell id="d4jXJWVj_I53OdiB78ze-99" style="edgeStyle=orthogonalEdgeStyle;rounded=1;orthogonalLoop=1;jettySize=auto;html=1;exitX=1;exitY=0.5;exitDx=0;exitDy=0;strokeColor=#006658;fillColor=#21C0A5;fontColor=#5C5C5C;" edge="1" parent="d4jXJWVj_I53OdiB78ze-96">
          <mxGeometry relative="1" as="geometry">
            <mxPoint x="323" y="125" as="sourcePoint" />
            <mxPoint x="323" y="125" as="targetPoint" />
          </mxGeometry>
        </mxCell>
        <mxCell id="d4jXJWVj_I53OdiB78ze-101" value="Weapon_Dagger" style="swimlane;fontStyle=1;align=center;verticalAlign=top;childLayout=stackLayout;horizontal=1;startSize=26;horizontalStack=0;resizeParent=1;resizeParentMax=0;resizeLast=0;collapsible=1;marginBottom=0;fillColor=#21C0A5;strokeColor=#006658;fontColor=#5C5C5C;rounded=1;" vertex="1" parent="1">
          <mxGeometry x="311" y="1670" width="323" height="60" as="geometry" />
        </mxCell>
        <mxCell id="d4jXJWVj_I53OdiB78ze-102" value="" style="line;strokeWidth=1;fillColor=none;align=left;verticalAlign=middle;spacingTop=-1;spacingLeft=3;spacingRight=3;rotatable=0;labelPosition=right;points=[];portConstraint=eastwest;strokeColor=#006658;fontColor=#5C5C5C;rounded=1;" vertex="1" parent="d4jXJWVj_I53OdiB78ze-101">
          <mxGeometry y="26" width="323" height="8" as="geometry" />
        </mxCell>
        <mxCell id="d4jXJWVj_I53OdiB78ze-103" value="+ attack(Character target): int " style="text;strokeColor=none;fillColor=none;align=left;verticalAlign=top;spacingLeft=4;spacingRight=4;overflow=hidden;rotatable=0;points=[[0,0.5],[1,0.5]];portConstraint=eastwest;fontColor=#5C5C5C;rounded=1;" vertex="1" parent="d4jXJWVj_I53OdiB78ze-101">
          <mxGeometry y="34" width="323" height="26" as="geometry" />
        </mxCell>
        <mxCell id="d4jXJWVj_I53OdiB78ze-104" style="edgeStyle=orthogonalEdgeStyle;rounded=1;orthogonalLoop=1;jettySize=auto;html=1;exitX=1;exitY=0.5;exitDx=0;exitDy=0;strokeColor=#006658;fillColor=#21C0A5;fontColor=#5C5C5C;" edge="1" parent="d4jXJWVj_I53OdiB78ze-101">
          <mxGeometry relative="1" as="geometry">
            <mxPoint x="323" y="125" as="sourcePoint" />
            <mxPoint x="323" y="125" as="targetPoint" />
          </mxGeometry>
        </mxCell>
        <mxCell id="d4jXJWVj_I53OdiB78ze-106" value="" style="endArrow=block;endSize=16;endFill=0;html=1;edgeStyle=orthogonalEdgeStyle;" edge="1" parent="1" source="d4jXJWVj_I53OdiB78ze-79" target="d4jXJWVj_I53OdiB78ze-66">
          <mxGeometry width="160" relative="1" as="geometry">
            <mxPoint x="61" y="1530" as="sourcePoint" />
            <mxPoint x="131" y="1260" as="targetPoint" />
            <Array as="points">
              <mxPoint x="473" y="1260" />
              <mxPoint x="243" y="1260" />
            </Array>
          </mxGeometry>
        </mxCell>
        <mxCell id="d4jXJWVj_I53OdiB78ze-107" value="" style="endArrow=block;endSize=16;endFill=0;html=1;edgeStyle=orthogonalEdgeStyle;" edge="1" parent="1" source="d4jXJWVj_I53OdiB78ze-87" target="d4jXJWVj_I53OdiB78ze-66">
          <mxGeometry width="160" relative="1" as="geometry">
            <mxPoint x="491.54399999999987" y="1298.34" as="sourcePoint" />
            <mxPoint x="252.5" y="1244" as="targetPoint" />
            <Array as="points">
              <mxPoint x="476" y="1340" />
              <mxPoint x="243" y="1340" />
            </Array>
          </mxGeometry>
        </mxCell>
        <mxCell id="d4jXJWVj_I53OdiB78ze-109" value="" style="endArrow=block;endSize=16;endFill=0;html=1;edgeStyle=orthogonalEdgeStyle;" edge="1" parent="1" source="d4jXJWVj_I53OdiB78ze-92" target="d4jXJWVj_I53OdiB78ze-66">
          <mxGeometry width="160" relative="1" as="geometry">
            <mxPoint x="485.9411764705883" y="1360" as="sourcePoint" />
            <mxPoint x="253" y="1244" as="targetPoint" />
            <Array as="points">
              <mxPoint x="486" y="1420" />
              <mxPoint x="243" y="1420" />
            </Array>
          </mxGeometry>
        </mxCell>
        <mxCell id="d4jXJWVj_I53OdiB78ze-110" value="" style="endArrow=block;endSize=16;endFill=0;html=1;edgeStyle=orthogonalEdgeStyle;" edge="1" parent="1" source="d4jXJWVj_I53OdiB78ze-101" target="d4jXJWVj_I53OdiB78ze-66">
          <mxGeometry width="160" relative="1" as="geometry">
            <mxPoint x="496" y="1440" as="sourcePoint" />
            <mxPoint x="253" y="1244" as="targetPoint" />
            <Array as="points">
              <mxPoint x="481" y="1640" />
              <mxPoint x="243" y="1640" />
            </Array>
          </mxGeometry>
        </mxCell>
        <mxCell id="d4jXJWVj_I53OdiB78ze-114" value="" style="endArrow=block;endSize=16;endFill=0;html=1;edgeStyle=orthogonalEdgeStyle;" edge="1" parent="1" source="d4jXJWVj_I53OdiB78ze-96" target="d4jXJWVj_I53OdiB78ze-92">
          <mxGeometry width="160" relative="1" as="geometry">
            <mxPoint x="161" y="1330" as="sourcePoint" />
            <mxPoint x="321" y="1330" as="targetPoint" />
          </mxGeometry>
        </mxCell>
      </root>
    </mxGraphModel>
  </diagram>
</mxfile>
